<svg width="155" height="36" viewBox="0 0 155 36" fill="none" xmlns="http://www.w3.org/2000/svg">
<path d="M82.52 15H85.54L89.34 1.66H86.14L83.82 11.3L81.3 1.66H79.08L76.54 11.3L74.2 1.66H71.02L74.84 15H77.86L80.18 5.84L82.52 15ZM91.7794 15H101.219V12.54H94.6194V9.44H101.079V7H94.6194V4.1H101.219V1.66H91.7794V15ZM112.08 15H115.34L112.34 9.92C113.78 9.58 115.26 8.32 115.26 5.96C115.26 3.48 113.56 1.66 110.78 1.66H104.54V15H107.38V10.22H109.46L112.08 15ZM112.36 5.94C112.36 7.06 111.5 7.78 110.36 7.78H107.38V4.1H110.36C111.5 4.1 112.36 4.82 112.36 5.94ZM121.376 15H124.236V4.16H128.116V1.66H117.476V4.16H121.376V15ZM131.036 15H140.476V12.54H133.876V9.44H140.336V7H133.876V4.1H140.476V1.66H131.036V15ZM81.46 33H84.32V19.66H81.46V24.9H75.16V19.66H72.32V33H75.16V27.4H81.46V33ZM88.0489 33H97.4889V30.54H90.8889V27.44H97.3489V25H90.8889V22.1H97.4889V19.66H88.0489V33ZM108.349 33H111.609L108.609 27.92C110.049 27.58 111.529 26.32 111.529 23.96C111.529 21.48 109.829 19.66 107.049 19.66H100.809V33H103.649V28.22H105.729L108.349 33ZM108.629 23.94C108.629 25.06 107.769 25.78 106.629 25.78H103.649V22.1H106.629C107.769 22.1 108.629 22.82 108.629 23.94ZM122.301 33H125.561L122.561 27.92C124.001 27.58 125.481 26.32 125.481 23.96C125.481 21.48 123.781 19.66 121.001 19.66H114.761V33H117.601V28.22H119.681L122.301 33ZM122.581 23.94C122.581 25.06 121.721 25.78 120.581 25.78H117.601V22.1H120.581C121.721 22.1 122.581 22.82 122.581 23.94ZM128.712 33H138.152V30.54H131.552V27.44H138.012V25H131.552V22.1H138.152V19.66H128.712V33ZM150.672 33H153.412V19.66H150.572V28.3L144.392 19.66H141.472V33H144.312V24.04L150.672 33Z" fill="white"/>
<path d="M25.5597 36L17.1565 16.396L8.57825 36L0 0.891089H7.35278L10.679 16.7525L17.1565 0L23.4589 16.9307L27.1353 0.891089H34.313L25.5597 36Z" fill="#FCBE00"/>
<path d="M46.2174 0.891068H39.74V33.5049H46.2174V0.891068Z" fill="#FCBE00"/>
<path d="M60.0478 0.891068H53.5703V33.5049H60.0478V0.891068Z" fill="#FCBE00"/>
<path d="M63.5491 14.4357L34.1379 17.4654L35.7135 12.4753L65.1247 9.44557L63.5491 14.4357Z" fill="#FCBE00"/>
<path d="M64.4243 22.099L34.8381 25.1287L36.4137 20.1386L65.9999 17.1089L64.4243 22.099Z" fill="#FCBE00"/>
</svg>
